<?xml version="1.0" ?><!DOCTYPE svg  PUBLIC '-//W3C//DTD SVG 1.1//EN'  'http://www.w3.org/Graphics/SVG/1.1/DTD/svg11.dtd'><svg height="8.4666mm" style="shape-rendering:geometricPrecision; text-rendering:geometricPrecision; image-rendering:optimizeQuality; fill-rule:evenodd; clip-rule:evenodd" version="1.1" viewBox="0 0 846.66 846.66" width="8.4666mm" xml:space="preserve" xmlns="http://www.w3.org/2000/svg" xmlns:xlink="http://www.w3.org/1999/xlink"><defs><style type="text/css">
   <![CDATA[
    .fil0 {fill:black;fill-rule:nonzero}
   ]]>
  </style></defs><g id="Layer_x0020_1"><path class="fil0" d="M395.96 111.66l54.74 0 0 -62.6 -54.74 0 0 62.6zm-267.2 96.86c21.43,-16.75 46.93,15.89 25.49,32.64 -92.23,71.87 -120.42,161.05 -84.57,267.53 8.65,25.85 -30.65,39 -39.3,13.16 -42.08,-124.99 -9.29,-229.43 98.38,-313.33zm563.65 32.64c-21.44,-16.75 4.06,-49.39 25.49,-32.64 107.67,83.9 140.46,188.34 98.38,313.33 -8.65,25.84 -47.95,12.69 -39.3,-13.16 35.85,-106.48 7.66,-195.66 -84.57,-267.53zm-200.14 -129.44c69.34,1.99 125.39,58.58 126.73,127.93l114.27 457.09c3.27,13.09 -6.81,25.8 -20.14,25.8l-153.97 0.02c-10.16,66.96 -67.96,116.61 -135.83,116.61 -67.86,0 -125.67,-49.65 -135.83,-116.61l-153.97 0c-14.11,0 -23.99,-13.74 -19.84,-26.99l113.97 -455.92c1.34,-69.35 57.39,-125.94 126.73,-127.93l0 -83.44c0,-11.48 9.31,-20.79 20.79,-20.79l96.3 0c11.48,0 20.79,9.31 20.79,20.79l0 83.44zm24.62 610.84l-187.12 0c9.68,43.75 48.62,75.04 93.56,75.04 44.94,0 83.88,-31.29 93.56,-75.04zm-28.4 -569.33c-43.44,0 -86.88,0 -130.32,0 -48.87,0 -88.99,40.09 -88.99,88.97 0,1.66 -0.21,3.35 -0.63,5.03l-108.43 433.76 526.42 0 -108.14 -432.58c-0.61,-1.97 -0.94,-4.05 -0.94,-6.21 0,-48.89 -40.08,-88.97 -88.97,-88.97z"/></g></svg>